<mxfile host="65bd71144e">
    <diagram id="C5RBs43oDa-KdzZeNtuy" name="Page-1">
        <mxGraphModel dx="553" dy="510" grid="1" gridSize="10" guides="1" tooltips="1" connect="1" arrows="1" fold="1" page="1" pageScale="1" pageWidth="827" pageHeight="1169" math="0" shadow="0">
            <root>
                <mxCell id="WIyWlLk6GJQsqaUBKTNV-0"/>
                <mxCell id="WIyWlLk6GJQsqaUBKTNV-1" parent="WIyWlLk6GJQsqaUBKTNV-0"/>
                <mxCell id="2" style="edgeStyle=none;html=1;entryX=0.5;entryY=0;entryDx=0;entryDy=0;" edge="1" parent="WIyWlLk6GJQsqaUBKTNV-1" source="WIyWlLk6GJQsqaUBKTNV-3" target="WIfyMI-WzecUwXFEvHSk-3">
                    <mxGeometry relative="1" as="geometry"/>
                </mxCell>
                <mxCell id="WIyWlLk6GJQsqaUBKTNV-3" value="Non Connected User" style="rounded=1;whiteSpace=wrap;html=1;fontSize=12;glass=0;strokeWidth=1;shadow=0;" parent="WIyWlLk6GJQsqaUBKTNV-1" vertex="1">
                    <mxGeometry x="340" y="50" width="120" height="40" as="geometry"/>
                </mxCell>
                <mxCell id="WIfyMI-WzecUwXFEvHSk-6" style="edgeStyle=orthogonalEdgeStyle;rounded=0;orthogonalLoop=1;jettySize=auto;html=1;" parent="WIyWlLk6GJQsqaUBKTNV-1" source="WIfyMI-WzecUwXFEvHSk-3" target="WIfyMI-WzecUwXFEvHSk-5" edge="1">
                    <mxGeometry relative="1" as="geometry"/>
                </mxCell>
                <UserObject label="Filters Research" link="https://github.com/Conchero/ecf-back/blob/main/prodDocs/FilterResearch.drawio" linkTarget="_blank" id="WIfyMI-WzecUwXFEvHSk-3">
                    <mxCell style="shape=process;whiteSpace=wrap;html=1;backgroundOutline=1;" parent="WIyWlLk6GJQsqaUBKTNV-1" vertex="1">
                        <mxGeometry x="340" y="220" width="120" height="60" as="geometry"/>
                    </mxCell>
                </UserObject>
                <mxCell id="WIfyMI-WzecUwXFEvHSk-8" style="edgeStyle=orthogonalEdgeStyle;rounded=0;orthogonalLoop=1;jettySize=auto;html=1;" parent="WIyWlLk6GJQsqaUBKTNV-1" source="WIfyMI-WzecUwXFEvHSk-5" edge="1">
                    <mxGeometry relative="1" as="geometry">
                        <mxPoint x="400" y="460" as="targetPoint"/>
                    </mxGeometry>
                </mxCell>
                <mxCell id="WIfyMI-WzecUwXFEvHSk-5" value="Click On Room" style="shape=parallelogram;perimeter=parallelogramPerimeter;whiteSpace=wrap;html=1;fixedSize=1;" parent="WIyWlLk6GJQsqaUBKTNV-1" vertex="1">
                    <mxGeometry x="340" y="340" width="120" height="60" as="geometry"/>
                </mxCell>
                <mxCell id="WIfyMI-WzecUwXFEvHSk-15" style="edgeStyle=orthogonalEdgeStyle;rounded=0;orthogonalLoop=1;jettySize=auto;html=1;" parent="WIyWlLk6GJQsqaUBKTNV-1" target="WIfyMI-WzecUwXFEvHSk-9" edge="1">
                    <mxGeometry relative="1" as="geometry">
                        <mxPoint x="400" y="520" as="sourcePoint"/>
                    </mxGeometry>
                </mxCell>
                <mxCell id="WIfyMI-WzecUwXFEvHSk-13" style="edgeStyle=orthogonalEdgeStyle;rounded=0;orthogonalLoop=1;jettySize=auto;html=1;exitX=1;exitY=0.5;exitDx=0;exitDy=0;entryX=1;entryY=0.5;entryDx=0;entryDy=0;" parent="WIyWlLk6GJQsqaUBKTNV-1" source="WIfyMI-WzecUwXFEvHSk-9" target="WIfyMI-WzecUwXFEvHSk-3" edge="1">
                    <mxGeometry relative="1" as="geometry">
                        <mxPoint x="400" y="190" as="targetPoint"/>
                        <Array as="points">
                            <mxPoint x="570" y="590"/>
                            <mxPoint x="570" y="250"/>
                        </Array>
                    </mxGeometry>
                </mxCell>
                <mxCell id="WIfyMI-WzecUwXFEvHSk-14" value="No" style="edgeLabel;html=1;align=center;verticalAlign=middle;resizable=0;points=[];" parent="WIfyMI-WzecUwXFEvHSk-13" vertex="1" connectable="0">
                    <mxGeometry x="-0.3769" relative="1" as="geometry">
                        <mxPoint as="offset"/>
                    </mxGeometry>
                </mxCell>
                <mxCell id="WIfyMI-WzecUwXFEvHSk-16" style="edgeStyle=orthogonalEdgeStyle;rounded=0;orthogonalLoop=1;jettySize=auto;html=1;" parent="WIyWlLk6GJQsqaUBKTNV-1" source="WIfyMI-WzecUwXFEvHSk-9" target="WIfyMI-WzecUwXFEvHSk-11" edge="1">
                    <mxGeometry relative="1" as="geometry"/>
                </mxCell>
                <mxCell id="WIfyMI-WzecUwXFEvHSk-17" value="Yes" style="edgeLabel;html=1;align=center;verticalAlign=middle;resizable=0;points=[];" parent="WIfyMI-WzecUwXFEvHSk-16" vertex="1" connectable="0">
                    <mxGeometry x="-0.0543" y="-1" relative="1" as="geometry">
                        <mxPoint as="offset"/>
                    </mxGeometry>
                </mxCell>
                <mxCell id="WIfyMI-WzecUwXFEvHSk-9" value="Make Reservation ?" style="rhombus;whiteSpace=wrap;html=1;" parent="WIyWlLk6GJQsqaUBKTNV-1" vertex="1">
                    <mxGeometry x="325" y="550" width="150" height="80" as="geometry"/>
                </mxCell>
                <mxCell id="WIfyMI-WzecUwXFEvHSk-24" style="edgeStyle=orthogonalEdgeStyle;rounded=0;orthogonalLoop=1;jettySize=auto;html=1;entryX=0.5;entryY=0;entryDx=0;entryDy=0;" parent="WIyWlLk6GJQsqaUBKTNV-1" source="WIfyMI-WzecUwXFEvHSk-11" target="WIfyMI-WzecUwXFEvHSk-26" edge="1">
                    <mxGeometry relative="1" as="geometry">
                        <mxPoint x="400" y="830" as="targetPoint"/>
                    </mxGeometry>
                </mxCell>
                <mxCell id="WIfyMI-WzecUwXFEvHSk-29" value="Yes" style="edgeLabel;html=1;align=center;verticalAlign=middle;resizable=0;points=[];" parent="WIfyMI-WzecUwXFEvHSk-24" vertex="1" connectable="0">
                    <mxGeometry x="-0.1333" y="-2" relative="1" as="geometry">
                        <mxPoint as="offset"/>
                    </mxGeometry>
                </mxCell>
                <mxCell id="WIfyMI-WzecUwXFEvHSk-11" value="User Connected ?" style="rhombus;whiteSpace=wrap;html=1;" parent="WIyWlLk6GJQsqaUBKTNV-1" vertex="1">
                    <mxGeometry x="335" y="680" width="130" height="80" as="geometry"/>
                </mxCell>
                <mxCell id="WIfyMI-WzecUwXFEvHSk-27" style="edgeStyle=orthogonalEdgeStyle;rounded=0;orthogonalLoop=1;jettySize=auto;html=1;exitX=0.5;exitY=0;exitDx=0;exitDy=0;entryX=0;entryY=0.5;entryDx=0;entryDy=0;" parent="WIyWlLk6GJQsqaUBKTNV-1" source="WIfyMI-WzecUwXFEvHSk-19" edge="1">
                    <mxGeometry relative="1" as="geometry">
                        <mxPoint x="340" y="490" as="targetPoint"/>
                        <Array as="points">
                            <mxPoint x="180" y="490"/>
                        </Array>
                        <mxPoint x="180" y="690" as="sourcePoint"/>
                    </mxGeometry>
                </mxCell>
                <mxCell id="WIfyMI-WzecUwXFEvHSk-31" style="edgeStyle=orthogonalEdgeStyle;rounded=0;orthogonalLoop=1;jettySize=auto;html=1;entryX=0.5;entryY=0;entryDx=0;entryDy=0;" parent="WIyWlLk6GJQsqaUBKTNV-1" source="WIfyMI-WzecUwXFEvHSk-26" edge="1">
                    <mxGeometry relative="1" as="geometry">
                        <mxPoint x="400" y="1020" as="targetPoint"/>
                    </mxGeometry>
                </mxCell>
                <mxCell id="WIfyMI-WzecUwXFEvHSk-26" value="Validate Choice" style="shape=parallelogram;perimeter=parallelogramPerimeter;whiteSpace=wrap;html=1;fixedSize=1;" parent="WIyWlLk6GJQsqaUBKTNV-1" vertex="1">
                    <mxGeometry x="340" y="830" width="120" height="60" as="geometry"/>
                </mxCell>
                <mxCell id="_BTFapLuZQAEqK3-PuFU-8" value="" style="edgeStyle=orthogonalEdgeStyle;rounded=0;orthogonalLoop=1;jettySize=auto;html=1;" parent="WIyWlLk6GJQsqaUBKTNV-1" source="WIfyMI-WzecUwXFEvHSk-30" target="_BTFapLuZQAEqK3-PuFU-7" edge="1">
                    <mxGeometry relative="1" as="geometry"/>
                </mxCell>
                <UserObject label="Send Reservation Request" link="https://github.com/Conchero/ecf-back/blob/FluxDiagram/prodDocs/Algoritme/Admin/SendReservationRequest.drawio" id="WIfyMI-WzecUwXFEvHSk-30">
                    <mxCell style="shape=process;whiteSpace=wrap;html=1;backgroundOutline=1;size=0.08333333333333333;" parent="WIyWlLk6GJQsqaUBKTNV-1" vertex="1">
                        <mxGeometry x="340" y="960" width="120" height="60" as="geometry"/>
                    </mxCell>
                </UserObject>
                <mxCell id="_BTFapLuZQAEqK3-PuFU-5" value="Check Room" style="shape=process;whiteSpace=wrap;html=1;backgroundOutline=1;" parent="WIyWlLk6GJQsqaUBKTNV-1" vertex="1">
                    <mxGeometry x="340" y="460" width="120" height="60" as="geometry"/>
                </mxCell>
                <mxCell id="_BTFapLuZQAEqK3-PuFU-7" value="See Reservation List" style="shape=process;whiteSpace=wrap;html=1;backgroundOutline=1;" parent="WIyWlLk6GJQsqaUBKTNV-1" vertex="1">
                    <mxGeometry x="340" y="1070" width="120" height="60" as="geometry"/>
                </mxCell>
                <mxCell id="0" value="" style="edgeStyle=orthogonalEdgeStyle;rounded=0;orthogonalLoop=1;jettySize=auto;html=1;exitX=0;exitY=0.5;exitDx=0;exitDy=0;entryX=0.5;entryY=1;entryDx=0;entryDy=0;" parent="WIyWlLk6GJQsqaUBKTNV-1" source="WIfyMI-WzecUwXFEvHSk-11" target="WIfyMI-WzecUwXFEvHSk-19" edge="1">
                    <mxGeometry relative="1" as="geometry">
                        <mxPoint x="340" y="490" as="targetPoint"/>
                        <Array as="points"/>
                        <mxPoint x="180" y="690" as="sourcePoint"/>
                    </mxGeometry>
                </mxCell>
                <mxCell id="1" value="No" style="edgeLabel;html=1;align=center;verticalAlign=middle;resizable=0;points=[];" parent="0" vertex="1" connectable="0">
                    <mxGeometry x="-0.1281" y="2" relative="1" as="geometry">
                        <mxPoint as="offset"/>
                    </mxGeometry>
                </mxCell>
                <UserObject label="Connect Popup" link="https://github.com/Conchero/ecf-back/blob/main/prodDocs/Algoritme/ConnectPopup.drawio" id="WIfyMI-WzecUwXFEvHSk-19">
                    <mxCell style="shape=process;whiteSpace=wrap;html=1;backgroundOutline=1;" parent="WIyWlLk6GJQsqaUBKTNV-1" vertex="1">
                        <mxGeometry x="130" y="555" width="120" height="60" as="geometry"/>
                    </mxCell>
                </UserObject>
            </root>
        </mxGraphModel>
    </diagram>
</mxfile>